# xmcd
#
# Track frame offsets:
#	150
#	12507
#	26167
#	42180
#	56368
#	72071
#	82693
#	98826
#	112237
#	126033
#	146111
#	165322
#
# Disc length: 2331 seconds
# Revision: 0
# Processed by: cddbd v1.5.2PL0 Copyright (c) Steve Scherf et al.
# Submitted via: dBpowerAMP V12.0
#
DISCID=9809190c
DTITLE=Dave Adkins - Nothing To Lose
DYEAR=2014
DGENRE=Country
TTITLE0=Mistaken Heart
TTITLE1=Put Some Grass In It
TTITLE2=Don't Pray That Way
TTITLE3=Tennessee Twister
TTITLE4=Silence is Golden
TTITLE5=Pike County Jail
TTITLE6=Tennessee Whiskey
TTITLE7=Moonshine In the Moonlight
TTITLE8=Nothing To Lose
TTITLE9=I Can't Even Walk
TTITLE10=Pretty Little Liar
TTITLE11=At Least It Wasn't Life
EXTD=
EXTT0=
EXTT1=
EXTT2=
EXTT3=
EXTT4=
EXTT5=
EXTT6=
EXTT7=
EXTT8=
EXTT9=
EXTT10=
EXTT11=
PLAYORDER=
